<svg width="39" height="39" viewBox="0 0 39 39" fill="none" xmlns="http://www.w3.org/2000/svg">
<path d="M17.2059 25.2353C16.5979 25.233 16.0164 24.9898 15.5885 24.5585L12.1474 21.1174C11.2515 20.2215 11.2515 18.767 12.1474 17.8712C13.0432 16.9754 14.4977 16.9754 15.3935 17.8712L17.332 19.8097L23.7441 14.3153C24.7959 13.6087 26.2217 13.8897 26.9271 14.9416C27.5133 15.8157 27.4307 16.9753 26.7264 17.7564L18.697 24.6388C18.2876 25.0105 17.7588 25.2227 17.2059 25.2353Z" fill="#4BBB30"/>
<path d="M19.5 39C8.73029 39 0 30.2697 0 19.5C0 8.73029 8.73029 0 19.5 0C30.2697 0 39 8.73029 39 19.5C39 30.2697 30.2697 39 19.5 39ZM19.5 4.58821C11.2641 4.58821 4.58821 11.2641 4.58821 19.5C4.58821 27.7359 11.2641 34.4118 19.5 34.4118C27.7359 34.4118 34.4118 27.7359 34.4118 19.5C34.4118 11.2641 27.7359 4.58821 19.5 4.58821Z" fill="#4BBB30"/>
</svg>
